<svg xmlns="http://www.w3.org/2000/svg" viewBox="0 0 900 440"><defs><marker id="arr" viewBox="0 0 10 10" refX="9" refY="5" markerWidth="7" markerHeight="7" orient="auto-start-reverse"><path d="M 0 0 L 10 5 L 0 10 z" fill="#94a3b8"/></marker></defs><rect x="0" y="0" width="900" height="440" rx="16" fill="#f8fafc" stroke="#e2e8f0"/><text x="450" y="38" text-anchor="middle" font-size="19" font-weight="700" fill="#1e293b" font-family="'Segoe UI','DejaVu Sans',sans-serif">Модуль 5. Таксономия Блума (Андерсон—Кратволь)</text><text x="450" y="60" text-anchor="middle" font-size="13" fill="#64748b" font-family="'Segoe UI','DejaVu Sans',sans-serif">проблемная ситуация «живёт» на уровнях 4–6</text><path d="M 80.0 400.0 L 700.0 400.0 L 665.0 348.0 L 115.0 348.0 Z" fill="#6366f1" opacity="0.35" stroke="#6366f1" stroke-width="1.5"/><text x="390.0" y="374.0" text-anchor="middle" dominant-baseline="middle" font-size="15" font-weight="700" fill="#fff" font-family="'Segoe UI','DejaVu Sans',sans-serif">1. Помнить</text><path d="M 115.0 348.0 L 665.0 348.0 L 630.0 296.0 L 150.0 296.0 Z" fill="#6366f1" opacity="0.46" stroke="#6366f1" stroke-width="1.5"/><text x="390.0" y="322.0" text-anchor="middle" dominant-baseline="middle" font-size="15" font-weight="700" fill="#fff" font-family="'Segoe UI','DejaVu Sans',sans-serif">2. Понимать</text><path d="M 150.0 296.0 L 630.0 296.0 L 595.0 244.0 L 185.0 244.0 Z" fill="#6366f1" opacity="0.57" stroke="#6366f1" stroke-width="1.5"/><text x="390.0" y="270.0" text-anchor="middle" dominant-baseline="middle" font-size="15" font-weight="700" fill="#fff" font-family="'Segoe UI','DejaVu Sans',sans-serif">3. Применять</text><path d="M 185.0 244.0 L 595.0 244.0 L 560.0 192.0 L 220.0 192.0 Z" fill="#10b981" opacity="0.68" stroke="#10b981" stroke-width="1.5"/><text x="390.0" y="218.0" text-anchor="middle" dominant-baseline="middle" font-size="15" font-weight="700" fill="#fff" font-family="'Segoe UI','DejaVu Sans',sans-serif">4. Анализировать</text><path d="M 220.0 192.0 L 560.0 192.0 L 525.0 140.0 L 255.0 140.0 Z" fill="#10b981" opacity="0.79" stroke="#10b981" stroke-width="1.5"/><text x="390.0" y="166.0" text-anchor="middle" dominant-baseline="middle" font-size="15" font-weight="700" fill="#fff" font-family="'Segoe UI','DejaVu Sans',sans-serif">5. Оценивать</text><path d="M 255.0 140.0 L 525.0 140.0 L 490.0 88.0 L 290.0 88.0 Z" fill="#10b981" opacity="0.90" stroke="#10b981" stroke-width="1.5"/><text x="390.0" y="114.0" text-anchor="middle" dominant-baseline="middle" font-size="15" font-weight="700" fill="#fff" font-family="'Segoe UI','DejaVu Sans',sans-serif">6. Создавать</text><path d="M 720.0 92.0 L 740.0 186.0 L 720.0 240.0" fill="none" stroke="#10b981" stroke-width="2.5"/><text x="762.0" y="186.0" text-anchor="middle" font-size="14" font-weight="700" fill="#10b981" transform="rotate(90 762.0 186.0)" font-family="'Segoe UI','DejaVu Sans',sans-serif">зона проблемного урока</text></svg>