<svg xmlns="http://www.w3.org/2000/svg" viewBox="0 0 900 504"><defs><marker id="arr" viewBox="0 0 10 10" refX="9" refY="5" markerWidth="7" markerHeight="7" orient="auto-start-reverse"><path d="M 0 0 L 10 5 L 0 10 z" fill="#94a3b8"/></marker></defs><rect x="0" y="0" width="900" height="504" rx="16" fill="#f8fafc" stroke="#e2e8f0"/><text x="450" y="38" text-anchor="middle" font-size="19" font-weight="700" fill="#1e293b" font-family="'Segoe UI','DejaVu Sans',sans-serif">Модуль 2. Модель лингводидактической компетенции</text><text x="450" y="60" text-anchor="middle" font-size="13" fill="#64748b" font-family="'Segoe UI','DejaVu Sans',sans-serif">4 компонента × 3 уровня сформированности</text><text x="400" y="108" text-anchor="middle" font-size="14" font-weight="700" fill="#64748b" font-family="'Segoe UI','DejaVu Sans',sans-serif">Репродуктивный</text><text x="580" y="108" text-anchor="middle" font-size="14" font-weight="700" fill="#6366f1" font-family="'Segoe UI','DejaVu Sans',sans-serif">Продуктивный</text><text x="760" y="108" text-anchor="middle" font-size="14" font-weight="700" fill="#10b981" font-family="'Segoe UI','DejaVu Sans',sans-serif">Творческий</text><rect x="60.0" y="130.0" width="240.0" height="66.0" rx="12" fill="#ffffff" stroke="#6366f1" stroke-width="2"/><text x="180.0" y="163.0" text-anchor="middle" dominant-baseline="middle" font-size="14" font-weight="600" fill="#1e293b" font-family="'Segoe UI','DejaVu Sans',sans-serif">Когнитивный</text><text x="180" y="184" text-anchor="middle" font-size="12" font-style="italic" fill="#64748b" font-family="'Segoe UI','DejaVu Sans',sans-serif">«знаю»</text><rect x="320" y="130" width="160" height="66" rx="10" fill="#64748b" opacity="0.17"/><rect x="320" y="130" width="160" height="66" rx="10" fill="none" stroke="#64748b" stroke-width="1.5"/><rect x="500" y="130" width="160" height="66" rx="10" fill="#6366f1" opacity="0.25"/><rect x="500" y="130" width="160" height="66" rx="10" fill="none" stroke="#6366f1" stroke-width="1.5"/><rect x="680" y="130" width="160" height="66" rx="10" fill="#10b981" opacity="0.38"/><rect x="680" y="130" width="160" height="66" rx="10" fill="none" stroke="#10b981" stroke-width="1.5"/><rect x="60.0" y="210.0" width="240.0" height="66.0" rx="12" fill="#ffffff" stroke="#6366f1" stroke-width="2"/><text x="180.0" y="243.0" text-anchor="middle" dominant-baseline="middle" font-size="14" font-weight="600" fill="#1e293b" font-family="'Segoe UI','DejaVu Sans',sans-serif">Деятельностный</text><text x="180" y="264" text-anchor="middle" font-size="12" font-style="italic" fill="#64748b" font-family="'Segoe UI','DejaVu Sans',sans-serif">«умею»</text><rect x="320" y="210" width="160" height="66" rx="10" fill="#64748b" opacity="0.17"/><rect x="320" y="210" width="160" height="66" rx="10" fill="none" stroke="#64748b" stroke-width="1.5"/><rect x="500" y="210" width="160" height="66" rx="10" fill="#6366f1" opacity="0.25"/><rect x="500" y="210" width="160" height="66" rx="10" fill="none" stroke="#6366f1" stroke-width="1.5"/><rect x="680" y="210" width="160" height="66" rx="10" fill="#10b981" opacity="0.38"/><rect x="680" y="210" width="160" height="66" rx="10" fill="none" stroke="#10b981" stroke-width="1.5"/><rect x="60.0" y="290.0" width="240.0" height="66.0" rx="12" fill="#ffffff" stroke="#6366f1" stroke-width="2"/><text x="180.0" y="323.0" text-anchor="middle" dominant-baseline="middle" font-size="14" font-weight="600" fill="#1e293b" font-family="'Segoe UI','DejaVu Sans',sans-serif">Мотивационно-ценностный</text><text x="180" y="344" text-anchor="middle" font-size="12" font-style="italic" fill="#64748b" font-family="'Segoe UI','DejaVu Sans',sans-serif">«ценю»</text><rect x="320" y="290" width="160" height="66" rx="10" fill="#64748b" opacity="0.17"/><rect x="320" y="290" width="160" height="66" rx="10" fill="none" stroke="#64748b" stroke-width="1.5"/><rect x="500" y="290" width="160" height="66" rx="10" fill="#6366f1" opacity="0.25"/><rect x="500" y="290" width="160" height="66" rx="10" fill="none" stroke="#6366f1" stroke-width="1.5"/><rect x="680" y="290" width="160" height="66" rx="10" fill="#10b981" opacity="0.38"/><rect x="680" y="290" width="160" height="66" rx="10" fill="none" stroke="#10b981" stroke-width="1.5"/><rect x="60.0" y="370.0" width="240.0" height="66.0" rx="12" fill="#ffffff" stroke="#6366f1" stroke-width="2"/><text x="180.0" y="403.0" text-anchor="middle" dominant-baseline="middle" font-size="14" font-weight="600" fill="#1e293b" font-family="'Segoe UI','DejaVu Sans',sans-serif">Рефлексивный</text><text x="180" y="424" text-anchor="middle" font-size="12" font-style="italic" fill="#64748b" font-family="'Segoe UI','DejaVu Sans',sans-serif">«анализирую»</text><rect x="320" y="370" width="160" height="66" rx="10" fill="#64748b" opacity="0.17"/><rect x="320" y="370" width="160" height="66" rx="10" fill="none" stroke="#64748b" stroke-width="1.5"/><rect x="500" y="370" width="160" height="66" rx="10" fill="#6366f1" opacity="0.25"/><rect x="500" y="370" width="160" height="66" rx="10" fill="none" stroke="#6366f1" stroke-width="1.5"/><rect x="680" y="370" width="160" height="66" rx="10" fill="#10b981" opacity="0.38"/><rect x="680" y="370" width="160" height="66" rx="10" fill="none" stroke="#10b981" stroke-width="1.5"/><line x1="330.0" y1="460.0" x2="830.0" y2="460.0" stroke="#10b981" stroke-width="2.5" marker-end="url(#arr)"/><text x="580" y="482" text-anchor="middle" font-size="13" font-style="italic" fill="#64748b" font-family="'Segoe UI','DejaVu Sans',sans-serif">рост уровня сформированности</text></svg>